# xmcd CD database file generated by MAGIX-FreeDB-MP3_Maker_12 v2.0beta1
# 
# Track frame offsets:
#      150
#      19165
#      39196
#      61594
#      76009
#      92510
#      112298
#      131507
#      147550
#      165890
#      181782
#      200195
#      224685
#      240316
#      255507
#      270544
#      288706
#      311383
#      327892
#      345507
# 
# Disc length: 4788 seconds
# 
# Revision: 2 
# Processed by: cddbd v1.5.2PL0 Copyright (c) Steve Scherf et al.
# Submitted via: MAGIX-FreeDB-MP3_Maker_12 v2.0beta1
# 
DISCID=1612b214
DTITLE=Diverse - Tribute Allstars Presenting Greatest Rock Hits  CD1
DYEAR=1900
DGENRE=Rock
TTITLE0=Boston - More Than A Feeling
TTITLE1=Free - Fire And Water
TTITLE2=The Eagles - Hotel California
TTITLE3=Peter Frampton - Show Me The Way
TTITLE4=Steve Miller Band - The Joker
TTITLE5=Thin Lizzy - The Boys Are Back In Town
TTITLE6=Derek and The Dominos - Layla
TTITLE7=Cheap Trick - I Want You To Want Me
TTITLE8=Bryan Adams, Rod Stewart and Sting - All For Love
TTITLE9=Todd Rundgren - Bang On The Drum
TTITLE10=Steve Miller - Abracadabra
TTITLE11=Cream - Sunshine Of Your Love
TTITLE12=Journey - Don´t Stop Believing
TTITLE13=Toto - Hold The Line
TTITLE14=Ted Nugent - Cat Scratch Fever
TTITLE15=Foreigner - Hot Blooded
TTITLE16=Styx - Come Sail Away
TTITLE17=Aerosmith - Don´t Want To Miss A Thing
TTITLE18=Robert Palmer - Addicted To Love
TTITLE19=Hall and Oates - Sarah Smiles
EXTD=
EXTT0=
EXTT1=
EXTT2=
EXTT3=
EXTT4=
EXTT5=
EXTT6=
EXTT7=
EXTT8=
EXTT9=
EXTT10=
EXTT11=
EXTT12=
EXTT13=
EXTT14=
EXTT15=
EXTT16=
EXTT17=
EXTT18=
EXTT19=
PLAYORDER=
